<?xml version="1.0" standalone="no"?><!DOCTYPE svg PUBLIC "-//W3C//DTD SVG 1.1//EN" "http://www.w3.org/Graphics/SVG/1.1/DTD/svg11.dtd"><svg t="1682149251030" class="icon" viewBox="0 0 1024 1024" version="1.1" xmlns="http://www.w3.org/2000/svg" p-id="24993" xmlns:xlink="http://www.w3.org/1999/xlink" width="200" height="200"><path d="M708.923077 551.384615a157.538462 157.538462 0 1 1 0 315.076923H315.076923a157.538462 157.538462 0 1 1 0-315.076923h393.846154z m0 39.384616H315.076923a118.153846 118.153846 0 0 0-6.931692 236.110769L315.076923 827.076923h393.846154a118.153846 118.153846 0 0 0 6.931692-236.110769L708.923077 590.769231z m-354.461539 39.384615a78.769231 78.769231 0 1 1 0 157.538462 78.769231 78.769231 0 0 1 0-157.538462z m0 39.384616a39.384615 39.384615 0 1 0 0 78.76923 39.384615 39.384615 0 0 0 0-78.76923z m354.461539-512a157.538462 157.538462 0 1 1 0 315.076923H315.076923a157.538462 157.538462 0 1 1 0-315.076923h393.846154z m0 39.384615H315.076923a118.153846 118.153846 0 0 0-6.931692 236.110769L315.076923 433.230769h393.846154a118.153846 118.153846 0 0 0 6.931692-236.110769L708.923077 196.923077z m-39.384615 39.384615a78.769231 78.769231 0 1 1 0 157.538462 78.769231 78.769231 0 0 1 0-157.538462z m0 39.384616a39.384615 39.384615 0 1 0 0 78.76923 39.384615 39.384615 0 0 0 0-78.76923z" fill="#333333" p-id="24994"></path></svg>